<?xml version="1.0" encoding="utf-8"?>
<!-- Generator: Adobe Illustrator 26.0.0, SVG Export Plug-In . SVG Version: 6.00 Build 0)  -->
<svg version="1.1" id="Capa_1" xmlns="http://www.w3.org/2000/svg" xmlns:xlink="http://www.w3.org/1999/xlink" x="0px" y="0px"
	 viewBox="0 0 803.1 591.4" style="enable-background:new 0 0 803.1 591.4;" xml:space="preserve">
<style type="text/css">
	.st0{fill:#FFFFFF;}
	.st1{fill:#E6E6E6;}
	.st2{fill:#CB0909;}
	.st3{fill:#F2F2F2;}
	.st4{fill:#9E616A;}
	.st5{fill:#2F2E41;}
	.st6{fill:#3F3D56;}
</style>
<path class="st0" d="M313.9,476.5c1.2,2.4,3.6,3.9,6.2,4.2c0.7,0.1,0.5,1.1-0.2,1c-2.9-0.3-5.5-2.1-6.9-4.6
	c-0.2-0.2-0.1-0.6,0.1-0.7C313.4,476.2,313.7,476.2,313.9,476.5L313.9,476.5z"/>
<path class="st1" d="M260.3,144.4H132.6c-8.2,0-14.9-6.7-14.9-14.9V60c0-8.2,6.7-14.9,14.9-14.9h127.7c8.2,0,14.9,6.7,14.9,14.9
	v69.6C275.2,137.8,268.5,144.4,260.3,144.4z"/>
<path class="st2" d="M455.3,144.4H327.6c-8.2,0-14.9-6.7-14.9-14.9V60c0-8.2,6.7-14.9,14.9-14.9h127.7c8.2,0,14.9,6.7,14.9,14.9
	v69.6C470.2,137.8,463.5,144.4,455.3,144.4z"/>
<path class="st1" d="M650.3,144.4H522.6c-8.2,0-14.9-6.7-14.9-14.9V60c0-8.2,6.7-14.9,14.9-14.9h127.7c8.2,0,14.9,6.7,14.9,14.9
	v69.6C665.2,137.8,658.5,144.4,650.3,144.4z"/>
<path class="st3" d="M260.3,299.4H132.6c-8.2,0-14.9-6.7-14.9-14.9V215c0-8.2,6.7-14.9,14.9-14.9h127.7c8.2,0,14.9,6.7,14.9,14.9
	v69.6C275.2,292.8,268.5,299.4,260.3,299.4z"/>
<path class="st1" d="M455.3,299.4H327.6c-8.2,0-14.9-6.7-14.9-14.9V215c0-8.2,6.7-14.9,14.9-14.9h127.7c8.2,0,14.9,6.7,14.9,14.9
	v69.6C470.2,292.8,463.5,299.4,455.3,299.4z"/>
<g id="e3e4f7c8-e232-44d3-85d4-7e764218aef0">
	<circle id="fcc64bf3-a6e1-406f-af2a-c5c9529d985b" class="st2" cx="464.3" cy="289.4" r="22.8"/>
	<path id="a515bf60-7ad9-4961-925b-281b4504c434-116" class="st0" d="M473.8,287.5H466v-7.8c0-1-0.8-1.8-1.8-1.8c0,0,0,0,0,0l0,0
		c-1,0-1.8,0.8-1.8,1.8c0,0,0,0,0,0v7.8h-7.8c-1,0-1.8,0.8-1.8,1.8v0l0,0c0,1,0.8,1.8,1.8,1.8l0,0h7.8v7.8c0,1,0.8,1.8,1.8,1.8
		c0,0,0,0,0,0l0,0c1,0,1.8-0.8,1.8-1.8v-7.8h7.8c1,0,1.8-0.8,1.8-1.8c0,0,0,0,0,0l0,0C475.6,288.3,474.8,287.5,473.8,287.5
		C473.8,287.5,473.8,287.5,473.8,287.5L473.8,287.5L473.8,287.5z"/>
</g>
<g id="e103fff6-fe82-4519-942e-bf1bf1b0aca3">
	<circle id="add300b1-303e-47da-8a54-54886e1d1e76" class="st2" cx="662.3" cy="138.4" r="22.8"/>
	<path id="ac71a829-1528-4702-ba68-9cb7b8b12af7-117" class="st0" d="M671.8,136.5H664v-7.8c0-1-0.8-1.8-1.8-1.8c0,0,0,0,0,0l0,0
		c-1,0-1.8,0.8-1.8,1.8c0,0,0,0,0,0v7.8h-7.8c-1,0-1.8,0.8-1.8,1.8v0l0,0c0,1,0.8,1.8,1.8,1.8l0,0h7.8v7.8c0,1,0.8,1.8,1.8,1.8
		c0,0,0,0,0,0l0,0c1,0,1.8-0.8,1.8-1.8v-7.8h7.8c1,0,1.8-0.8,1.8-1.8c0,0,0,0,0,0l0,0C673.6,137.3,672.8,136.5,671.8,136.5
		C671.8,136.5,671.8,136.5,671.8,136.5L671.8,136.5L671.8,136.5z"/>
</g>
<g id="eec1f109-4866-4d4c-80db-d160015753dd">
	<circle id="ad2802dd-75a3-400f-a980-dd7e255328e3" class="st2" cx="269.3" cy="136.4" r="22.8"/>
	<path id="a152d324-d2c4-475a-92fe-001d0469b5e0-118" class="st0" d="M278.8,134.5H271v-7.8c0-1-0.8-1.8-1.8-1.8l0,0
		c-1,0-1.8,0.8-1.8,1.8l0,0l0,0v7.8h-7.8c-1,0-1.8,0.8-1.8,1.8l0,0l0,0c0,1,0.8,1.8,1.8,1.8h7.8v7.8c0,1,0.8,1.8,1.8,1.8h0l0,0
		c1,0,1.8-0.8,1.8-1.8c0,0,0,0,0,0v-7.8h7.8c1,0,1.8-0.8,1.8-1.8l0,0l0,0C280.6,135.3,279.8,134.5,278.8,134.5L278.8,134.5
		L278.8,134.5L278.8,134.5z"/>
</g>
<path class="st4" d="M440.1,104.9c1.6,4.8-1,9.9-5.8,11.5c-0.5,0.2-1,0.3-1.6,0.4l-10.5,72l-17.3-8.5l17.4-71.9
	c-0.4-5,3.4-9.4,8.4-9.8C434.9,98.3,438.8,100.9,440.1,104.9L440.1,104.9z"/>
<path class="st4" d="M314.1,335.5c2.9-4.1,2-9.7-2.1-12.7c-0.4-0.3-0.9-0.6-1.4-0.8l7.1-76.6l-14.9,7.6l-4.7,73.8
	c-1.9,4.7,0.4,10,5.1,11.8C307.2,340.3,311.7,339,314.1,335.5L314.1,335.5z"/>
<polygon class="st4" points="324.3,296.8 388.3,294.3 391.9,227.9 318.1,227.9 "/>
<polygon class="st4" points="312.4,531.4 323.4,531.4 328.6,489.2 312.4,489.2 "/>
<path class="st5" d="M309.7,526l17.3-1v7.4l16.4,11.3c2.1,1.5,2.6,4.3,1.2,6.4c-0.9,1.3-2.3,2-3.8,2h-20.6l-3.5-7.3l-1.4,7.3h-7.8
	L309.7,526z"/>
<polygon class="st4" points="361,531.4 372,531.4 377.2,489.2 361,489.2 "/>
<path class="st5" d="M323.4,281.2c0,0-19.1,15.5-8.8,70.6c-1.6,0.2,0.2,3.3,0.2,3.3l1.5,45l1.2,5.2l-3.8,8.3l1.6,9l-4.9,82l18.1,2.3
	l17.3-85.1l3.3-9.6l3.3-8.4l-1.8-8.9L352,381l10-46.8l2.4,81.2l-3.4,7.8l1.9,8.5l-4.2,4.5l-1.7,76l19.3,0.9l15.9-76.6l-1.2-9.8
	l2.1-7.2v-16.9l3.6-8l7.9-43.4c0,0,2.4-34-15-73.9L323.4,281.2z"/>
<path class="st6" d="M331.2,172.7c0,0-24.2,4.8-28.3,25.4s-6.8,67.3-6.8,67.3l0.9,6.5l23.4,5.4l14.9-65.4L331.2,172.7z"/>
<path class="st6" d="M386.4,179.7c0,0,2.5-3.4,16.2-4c0.6,0-0.1-1.1-0.1-1.1l6.6-32.3l22,12.2l-3.7,33.8l-36.1,41.1L386.4,179.7z"/>
<path class="st6" d="M372.7,275.8c-10.4,0-25.9-1.1-49.4-4.6c-3.1-0.5-5.5-2.9-6-6c-1.6-1.7-1.9-4.1-0.9-6.2l0,0l-0.5-0.6
	c-1.7-2-1.8-4.9-0.4-7l-7.3-52c-1.5-10.7,4.9-20.8,15.2-24l2.7-0.8l10.1-13.3l0.2,0l32.6,0.4l10.6,13.4l17.1,4l0,0.3l4,22.9
	c2.1,11.9-2.7,16.6-8.7,27.1l1.8,29.4l0.8,1.5c0.9,1.7,0.5,3.8-0.9,5c0.5,1.5,0.6,3.2,0.1,4.8l-0.4,1.4c0,0-0.1,0.6-1,1.3
	C390.6,273.9,386,275.8,372.7,275.8z"/>
<path class="st5" d="M358.3,526l17.3-1v7.4l16.4,11.3c2.1,1.5,2.6,4.3,1.2,6.4c-0.9,1.3-2.3,2-3.8,2h-20.6l-3.5-7.3l-1.4,7.3h-7.8
	L358.3,526z"/>
<circle class="st4" cx="351.3" cy="128.2" r="25.5"/>
<path class="st5" d="M366.2,103.3c-9.4-6.4-17.6-7.4-24.4-5.6c-0.9-1.4-2.1-2.4-3.6-3.2c-5.3-13.3-21.3-21.3-35.1-17.4
	c-13.9,3.9-23.4,19.3-20.8,33.5c1.6,8.8,7.1,16.4,9.4,25c4.3,16.8-6.2,35.9-22.6,41.3c15.6,3.1,32.7-6.4,38.3-21.2
	c2.7-7.2,2.9-15.1,3.2-22.8c0.1-5.3,0.7-10.6,1.9-15.8c0.6-2.3,1.4-4.6,2.5-6.7c2.3-4.7,6.2-8.5,11-10.7c-0.9,2.7-0.4,5.6,1.3,7.9
	c-3.6,4.6-5.6,9.5-5.6,12.5c-7.6,13.9,3.3,25.8,17.1,33.3c5.5,3,11.9,4.2,18.1,3.2l0.6-2.5l0.8,2.2l2.6,7.5c3,1.5,6,3.1,9,4.8
	c-1.1-5.3-2-10.6-2.7-15.8c-0.9-7,2.2-17.5,4.4-23.9c1.4-3.9,2.1-8.1,2.1-12.2v-0.2l2.1,6.8l7.8-3.3
	C382.1,111.9,383.5,102.5,366.2,103.3z"/>
<ellipse id="aeef577c-289f-4c95-850d-f6939249b5af" transform="matrix(7.088906e-02 -0.9975 0.9975 7.088906e-02 -43.8977 537.7335)" class="st1" cx="266.7" cy="292.4" rx="22.8" ry="22.8"/>
<path class="st3" d="M609.9,279.3h-80c-5.1,0-9.3-4.2-9.3-9.3v-43.6c0-5.1,4.2-9.3,9.3-9.3h80c5.1,0,9.3,4.2,9.3,9.3V270
	C619.3,275.1,615.1,279.3,609.9,279.3z"/>
</svg>
